<svg xmlns="http://www.w3.org/2000/svg" version="1.1" xmlns:xlink="http://www.w3.org/1999/xlink" xmlns:svgjs="http://svgjs.dev/svgjs" width="1500" height="1500" viewBox="0 0 1500 1500"><rect width="1500" height="1500" fill="#000000"></rect><g transform="matrix(0.6666666666666666,0,0,0.6666666666666666,249.39393939393938,682.588106202509)"><svg viewBox="0 0 396 54" data-background-color="#001f3f" preserveAspectRatio="xMidYMid meet" height="204" width="1500" xmlns="http://www.w3.org/2000/svg" xmlns:xlink="http://www.w3.org/1999/xlink"><g id="tight-bounds" transform="matrix(1,0,0,1,0.2400000000000091,-0.2335127568785822)"><svg viewBox="0 0 395.52 54.46702551375717" height="54.46702551375717" width="395.52"><g><svg viewBox="0 0 540.9843469566488 74.49890834403078" height="54.46702551375717" width="395.52"><g><rect width="6.684963619241898" height="74.49890834403078" x="121.27947857499356" y="0" fill="#ffffff" opacity="1" stroke-width="0" stroke="transparent" fill-opacity="1" class="rect-qz-0" data-fill-palette-color="primary" rx="1%" id="qz-0" data-palette-color="#9d9d9d"></rect></g><g transform="matrix(1,0,0,1,145.4643469566488,0.18532066752246124)"><svg viewBox="0 0 395.5199999999999 74.12826700898586" height="74.12826700898586" width="395.5199999999999"><g id="textblocktransform"><svg viewBox="0 0 395.5199999999999 74.12826700898586" height="74.12826700898586" width="395.5199999999999" id="textblock"><g><svg viewBox="0 0 395.5199999999999 74.12826700898586" height="74.12826700898586" width="395.5199999999999"><g transform="matrix(1,0,0,1,0,0)"><svg width="395.5199999999999" viewBox="0.75 -32.4 194.73 36.5" height="74.12826700898586" data-palette-color="#9d9d9d"><path d="M15.35-32.4Q19.15-32.4 22.85-30.85L22.85-30.85 21.5-26.35 20.65-26.05Q19.35-27.2 17.78-27.83 16.2-28.45 14.6-28.45L14.6-28.45Q12.05-28.45 10.5-27.1 8.95-25.75 8.95-23.85L8.95-23.85Q8.95-22.2 10.18-21.05 11.4-19.9 14-18.35L14-18.35Q16.25-17 17.68-15.9 19.1-14.8 20.1-13.18 21.1-11.55 21.1-9.3L21.1-9.3Q21.1-6.6 19.63-4.4 18.15-2.2 15.5-0.9 12.85 0.4 9.55 0.4L9.55 0.4Q7.4 0.4 5.05-0.18 2.7-0.75 0.75-1.8L0.75-1.8 2-6.65 2.6-6.95Q4.15-5.25 6.2-4.38 8.25-3.5 10.15-3.5L10.15-3.5Q12.8-3.5 14.45-4.9 16.1-6.3 16.1-8.35L16.1-8.35Q16.1-10.1 14.85-11.25 13.6-12.4 11-14L11-14Q8.8-15.3 7.43-16.38 6.05-17.45 5.08-19.07 4.1-20.7 4.1-22.9L4.1-22.9Q4.1-25.55 5.58-27.73 7.05-29.9 9.6-31.15 12.15-32.4 15.35-32.4L15.35-32.4ZM45.35-25.05L49.95-25.05 47.55-7.9 46.75 0 42.25 0 43.35-7.5 43.7-10.6 31.6-10.55 31.25-7.9 30.45 0 25.9 0 27.05-7.5 29-25.05 33.65-25.05 32.2-14.55 38.25-14.5 44.15-14.55 45.35-25.05ZM67.05-25.35Q71.89-25.35 74.5-22.65 77.09-19.95 77.09-14.45L77.09-14.45Q77.09-10.15 75.5-6.78 73.89-3.4 70.87-1.53 67.84 0.35 63.7 0.35L63.7 0.35Q58.8 0.35 56.2-2.4 53.59-5.15 53.59-10.7L53.59-10.7Q53.59-15.05 55.17-18.35 56.74-21.65 59.8-23.5 62.84-25.35 67.05-25.35L67.05-25.35ZM66.44-21.55Q62.39-21.55 60.37-18.95 58.34-16.35 58.34-10.95L58.34-10.95Q58.34-6.8 59.7-5.08 61.05-3.35 64.19-3.35L64.19-3.35Q72.3-3.35 72.3-14L72.3-14Q72.3-18.05 70.94-19.8 69.59-21.55 66.44-21.55L66.44-21.55ZM116.89-25.05L105.09 0 100.34 0 97.54-12.8 97.29-12.8 91.24 0 86.44 0 81.99-25.05 86.49-25.05 86.54-22.1 89.59-4.8 89.89-4.8 96.44-18.85 95.34-25.05 99.99-25.05 100.09-21.7 103.29-4.8 103.69-4.8 111.59-21.9 112.64-25.05 116.89-25.05ZM127.79-25.05L125.54-8.25 125.14-4.7Q124.74-1.55 122.99 0.43 121.24 2.4 117.29 4.1L117.29 4.1 115.84 1.6 115.89 1.15Q118.39-0.1 119.52-1.45 120.64-2.8 120.89-4.8L120.89-4.8 121.29-7.75 122.79-21.55 118.19-21.5 117.94-21.85 118.64-25.05 127.79-25.05ZM145.69-21.4L140.84-21.35 139.89-14.6 144.59-14.55 148.74-14.7 148.99-14.35 148.24-10.8 143.74-10.95 139.39-10.9 138.99-7.9 138.54-3.7 143.04-3.65 149.54-3.85 149.84-3.5 149.04 0 133.64 0 134.74-7.5 136.74-25.05 152.34-25.05 152.54-24.65 151.74-21.15 145.69-21.4ZM167.23-25.3Q171.38-25.3 174.03-23.7L174.03-23.7 172.73-19.55 172.19-19.4Q171.13-20.4 169.66-20.98 168.19-21.55 166.44-21.55L166.44-21.55Q162.58-21.55 160.53-18.82 158.48-16.1 158.48-10.85L158.48-10.85Q158.48-7.25 159.98-5.38 161.48-3.5 164.33-3.5L164.33-3.5Q165.98-3.5 167.73-4.08 169.48-4.65 170.94-5.65L170.94-5.65 171.38-5.4 170.48-1.3Q168.83-0.45 167.26-0.08 165.69 0.3 163.88 0.3L163.88 0.3Q158.94 0.3 156.28-2.48 153.63-5.25 153.63-10.3L153.63-10.3Q153.63-17.4 157.23-21.35 160.83-25.3 167.23-25.3L167.23-25.3ZM195.23-25.05L195.48-24.65 194.68-20.9 190.08-21.25 188.03-21.25 186.18-7.9 185.43 0 180.88 0 181.98-7.5 183.63-21.25 181.53-21.25 176.78-20.9 176.48-21.3 177.28-25.05 195.23-25.05Z" opacity="1" transform="matrix(1,0,0,1,0,0)" fill="#ffffff" class="wordmark-text-0" data-fill-palette-color="primary" id="text-0"></path></svg></g></svg></g></svg></g></svg></g><g transform="matrix(1,0,0,1,0,0.18532066752246124)"><svg viewBox="0 0 103.77957381258021 74.12826700898586" height="74.12826700898586" width="103.77957381258021"><g><svg xmlns="http://www.w3.org/2000/svg" viewBox="4 12 56 40" x="0" y="0" height="74.12826700898586" width="103.77957381258021" class="icon-icon-0" data-fill-palette-color="accent" id="icon-0"></svg></g></svg></g></svg></g><defs></defs><mask id="134703ba-da01-424c-ac76-328e8a98f64d"><g id="SvgjsG1171"><svg viewBox="0 0 395.52 54.46702551375717" height="54.46702551375717" width="395.52"><g><svg viewBox="0 0 540.9843469566488 74.49890834403078" height="54.46702551375717" width="395.52"><g><rect width="6.684963619241898" height="74.49890834403078" x="121.27947857499356" y="0" fill="black" opacity="1" stroke-width="0" stroke="transparent" fill-opacity="1" class="rect-qz-0" rx="1%" id="SvgjsRect1170" data-palette-color="#9d9d9d"></rect></g><g transform="matrix(1,0,0,1,145.4643469566488,0.18532066752246124)"><svg viewBox="0 0 395.5199999999999 74.12826700898586" height="74.12826700898586" width="395.5199999999999"><g id="SvgjsG1169"><svg viewBox="0 0 395.5199999999999 74.12826700898586" height="74.12826700898586" width="395.5199999999999" id="SvgjsSvg1168"><g><svg viewBox="0 0 395.5199999999999 74.12826700898586" height="74.12826700898586" width="395.5199999999999"><g transform="matrix(1,0,0,1,0,0)"><svg width="395.5199999999999" viewBox="0.75 -32.4 194.73 36.5" height="74.12826700898586" data-palette-color="#9d9d9d"><path d="M15.35-32.4Q19.15-32.4 22.85-30.85L22.85-30.85 21.5-26.35 20.65-26.05Q19.35-27.2 17.78-27.83 16.2-28.45 14.6-28.45L14.6-28.45Q12.05-28.45 10.5-27.1 8.95-25.75 8.95-23.85L8.95-23.85Q8.95-22.2 10.18-21.05 11.4-19.9 14-18.35L14-18.35Q16.25-17 17.68-15.9 19.1-14.8 20.1-13.18 21.1-11.55 21.1-9.3L21.1-9.3Q21.1-6.6 19.63-4.4 18.15-2.2 15.5-0.9 12.85 0.4 9.55 0.4L9.55 0.4Q7.4 0.4 5.05-0.18 2.7-0.75 0.75-1.8L0.75-1.8 2-6.65 2.6-6.95Q4.15-5.25 6.2-4.38 8.25-3.5 10.15-3.5L10.15-3.5Q12.8-3.5 14.45-4.9 16.1-6.3 16.1-8.35L16.1-8.35Q16.1-10.1 14.85-11.25 13.6-12.4 11-14L11-14Q8.8-15.3 7.43-16.38 6.05-17.45 5.08-19.07 4.1-20.7 4.1-22.9L4.1-22.9Q4.1-25.55 5.58-27.73 7.05-29.9 9.6-31.15 12.15-32.4 15.35-32.4L15.35-32.4ZM45.35-25.05L49.95-25.05 47.55-7.9 46.75 0 42.25 0 43.35-7.5 43.7-10.6 31.6-10.55 31.25-7.9 30.45 0 25.9 0 27.05-7.5 29-25.05 33.65-25.05 32.2-14.55 38.25-14.5 44.15-14.55 45.35-25.05ZM67.05-25.35Q71.89-25.35 74.5-22.65 77.09-19.95 77.09-14.45L77.09-14.45Q77.09-10.15 75.5-6.78 73.89-3.4 70.87-1.53 67.84 0.35 63.7 0.35L63.7 0.35Q58.8 0.35 56.2-2.4 53.59-5.15 53.59-10.7L53.59-10.7Q53.59-15.05 55.17-18.35 56.74-21.65 59.8-23.5 62.84-25.35 67.05-25.35L67.05-25.35ZM66.44-21.55Q62.39-21.55 60.37-18.95 58.34-16.35 58.34-10.95L58.34-10.95Q58.34-6.8 59.7-5.08 61.05-3.35 64.19-3.35L64.19-3.35Q72.3-3.35 72.3-14L72.3-14Q72.3-18.05 70.94-19.8 69.59-21.55 66.44-21.55L66.44-21.55ZM116.89-25.05L105.09 0 100.34 0 97.54-12.8 97.29-12.8 91.24 0 86.44 0 81.99-25.05 86.49-25.05 86.54-22.1 89.59-4.8 89.89-4.8 96.44-18.85 95.34-25.05 99.99-25.05 100.09-21.7 103.29-4.8 103.69-4.8 111.59-21.9 112.64-25.05 116.89-25.05ZM127.79-25.05L125.54-8.25 125.14-4.7Q124.74-1.55 122.99 0.43 121.24 2.4 117.29 4.1L117.29 4.1 115.84 1.6 115.89 1.15Q118.39-0.1 119.52-1.45 120.64-2.8 120.89-4.8L120.89-4.8 121.29-7.75 122.79-21.55 118.19-21.5 117.94-21.85 118.64-25.05 127.79-25.05ZM145.69-21.4L140.84-21.35 139.89-14.6 144.59-14.55 148.74-14.7 148.99-14.35 148.24-10.8 143.74-10.95 139.39-10.9 138.99-7.9 138.54-3.7 143.04-3.65 149.54-3.85 149.84-3.5 149.04 0 133.64 0 134.74-7.5 136.74-25.05 152.34-25.05 152.54-24.65 151.74-21.15 145.69-21.4ZM167.23-25.3Q171.38-25.3 174.03-23.7L174.03-23.7 172.73-19.55 172.19-19.4Q171.13-20.4 169.66-20.98 168.19-21.55 166.44-21.55L166.44-21.55Q162.58-21.55 160.53-18.82 158.48-16.1 158.48-10.85L158.48-10.85Q158.48-7.25 159.98-5.38 161.48-3.5 164.33-3.5L164.33-3.5Q165.98-3.5 167.73-4.08 169.48-4.65 170.94-5.65L170.94-5.65 171.38-5.4 170.48-1.3Q168.83-0.45 167.26-0.08 165.69 0.3 163.88 0.3L163.88 0.3Q158.94 0.3 156.28-2.48 153.63-5.25 153.63-10.3L153.63-10.3Q153.63-17.4 157.23-21.35 160.83-25.3 167.23-25.3L167.23-25.3ZM195.23-25.05L195.48-24.65 194.68-20.9 190.08-21.25 188.03-21.25 186.18-7.9 185.43 0 180.88 0 181.98-7.5 183.63-21.25 181.53-21.25 176.78-20.9 176.48-21.3 177.28-25.05 195.23-25.05Z" opacity="1" transform="matrix(1,0,0,1,0,0)" fill="black" class="wordmark-text-0" id="SvgjsPath1167"></path></svg></g></svg></g></svg></g></svg></g><g transform="matrix(1,0,0,1,0,0.18532066752246124)"><svg viewBox="0 0 103.77957381258021 74.12826700898586" height="74.12826700898586" width="103.77957381258021"><g><svg xmlns="http://www.w3.org/2000/svg" viewBox="4 12 56 40" x="0" y="0" height="74.12826700898586" width="103.77957381258021" class="icon-icon-0" data-fill-palette-color="accent" id="SvgjsSvg1166"><path d="M55 12H9a5 5 0 0 0-5 5V47a5 5 0 0 0 5 5H55a5 5 0 0 0 5-5V17A5 5 0 0 0 55 12Zm3 35a3 3 0 0 1-3 3H9a3 3 0 0 1-3-3V17a3 3 0 0 1 3-3H55a3 3 0 0 1 3 3Z" fill="white"></path><circle cx="54" cy="18" r="2.0" fill="white"></circle><circle cx="49" cy="18" r="2.0" fill="white"></circle><circle cx="44" cy="18" r="2.0" fill="white"></circle><path d="M38 18a2 2 0 0 0-2-2H10a2 2 0 0 0 0 4H36A2 2 0 0 0 38 18Z" fill="white"></path><path d="M32 28a12 12 0 0 0-10.94 7.09l-0.18 0.41 0.18 0.41a12 12 0 0 0 21.88 0l0.18-0.41-0.18-0.41A12 12 0 0 0 32 28Zm4 6a4 4 0 1 1-4-4A4 4 0 0 1 36 34Zm-4 7a10 10 0 0 1-8.92-5.5 10 10 0 0 1 3.38-3.79 6 6 0 1 0 11.09 0 10 10 0 0 1 3.38 3.79A10 10 0 0 1 32 41Z" fill="white"></path></svg></g></svg></g></svg></g><defs><mask></mask></defs></svg><rect width="395.52" height="54.46702551375717" fill="black" stroke="none" visibility="hidden"></rect></g></mask><linearGradient x1="0.054" x2="0.941" y1="0.5" y2="0.5" id="96be1601-3a20-4b32-a67b-311d847c923f"><stop stop-color="#9c7945" offset="0"></stop><stop stop-color="#faf3aa" offset="0.498"></stop><stop stop-color="#9c7945" offset="1"></stop></linearGradient><rect width="395.52" height="54.46702551375717" fill="#ffffff" mask="url(#134703ba-da01-424c-ac76-328e8a98f64d)" data-fill-palette-color="accent"></rect></svg><rect width="395.52" height="54.46702551375717" fill="none" stroke="none" visibility="hidden"></rect></g></svg></g></svg>